<svg width="40" height="40" viewBox="0 0 40 40" fill="none" xmlns="http://www.w3.org/2000/svg">
<circle cx="20" cy="20" r="20" fill="#303030"/>
<path d="M14.2861 15.1016H16.3506V21.5273C16.3506 23.6943 14.7031 25.1436 12.249 25.1367C9.78809 25.1436 8.16113 23.6943 8.16113 21.5273V15.1016H10.2119V21.3633C10.2188 22.5049 11.0254 23.3252 12.249 23.332C13.4863 23.3252 14.293 22.5049 14.2861 21.3633V15.1016ZM18.0186 25V15.1016H21.9014C24.1504 15.1016 25.4424 16.3662 25.4424 18.3281C25.4424 19.6816 24.8203 20.666 23.6924 21.1514L25.7979 25H23.5283L21.6348 21.4863H20.0693V25H18.0186ZM20.0693 19.8184H21.5186C22.7354 19.8184 23.3301 19.3193 23.3232 18.3281C23.3301 17.3301 22.7354 16.79 21.5186 16.7832H20.0693V19.8184ZM26.8643 25V15.1016H28.915V23.3047H33.1807V25H26.8643Z" fill="white"/>
</svg>
