<svg width="157" height="59" viewBox="0 0 157 59" fill="none" xmlns="http://www.w3.org/2000/svg">
<path d="M15.5883 12.824H8.75627C4.19227 12.824 1.25227 10.388 1.25227 6.552C1.25227 2.744 4.19227 0.28 8.75627 0.28H15.5883C20.1243 0.28 23.0923 2.744 23.0923 6.552C23.0923 10.388 20.1243 12.824 15.5883 12.824ZM8.78427 9.436H15.5043C17.8843 9.436 19.2563 8.316 19.2563 6.552C19.2563 4.76 17.8843 3.668 15.5043 3.668H8.78427C6.43227 3.668 5.08827 4.76 5.08827 6.552C5.08827 8.316 6.43227 9.436 8.78427 9.436ZM23.7363 15.4V18.816H14.1323V24.724H10.1843V18.816H0.580266V15.4H23.7363ZM47.6312 0.28V24.472H43.9352V0.28H47.6312ZM40.6592 20.048V23.408H26.7152V9.996H35.4512V4.06H26.7152V0.672H39.1752V13.384H30.4392V20.048H40.6592ZM52.0661 0.672H63.7701V6.524C63.7701 13.748 60.0461 19.936 53.4101 23.436L50.8621 20.748C56.7701 17.864 60.0461 12.796 60.0461 7.028V4.06H52.0661V0.672ZM72.3381 12.936V24.472H68.6141V0.28H72.3381V9.38H75.4741V12.936H72.3381ZM85.9109 23.744L82.5509 22.512C85.7989 16.128 86.1629 8.288 86.1629 0.532H89.8029C89.8029 3.304 89.7189 6.16 89.4949 8.96C90.5309 13.272 92.5469 17.836 95.2349 21.308V11.844H91.7629V8.456H95.2349V0.391998H98.8469V24.192H95.2349V21.56L92.3229 23.408C90.8109 21.392 89.4949 18.844 88.4869 16.184C87.8989 18.872 87.0589 21.42 85.9109 23.744ZM104.643 24.472H100.947V0.28H104.643V24.472ZM132.486 5.04V8.568H129.35V14H125.626V0.28H129.35V5.04H132.486ZM113.138 0.28H116.862C116.862 1.764 116.694 3.22 116.386 4.592C117.982 6.944 120.558 9.156 123.134 10.5L120.922 13.244C118.794 12.04 116.666 10.248 115.042 8.316C113.95 10.528 112.354 12.404 110.366 13.832L107.594 11.424C111.262 8.96 113.138 5.096 113.138 0.28ZM123.554 24.724H115.518C111.626 24.724 109.19 22.96 109.19 19.74C109.19 16.8 111.626 14.756 115.518 14.756H123.554C127.418 14.756 129.854 16.8 129.854 19.74C129.854 22.96 127.418 24.724 123.554 24.724ZM115.518 21.588H123.554C125.038 21.588 126.046 20.86 126.046 19.74C126.046 18.648 125.038 17.892 123.554 17.892H115.518C113.978 17.892 113.026 18.648 113.026 19.74C113.026 20.86 113.978 21.588 115.518 21.588ZM139.469 5.544H149.997C150.977 5.544 151.705 5.096 151.705 4.312C151.705 3.556 150.977 3.136 149.997 3.136H139.469C138.489 3.136 137.873 3.556 137.873 4.312C137.873 5.096 138.489 5.544 139.469 5.544ZM139.413 0.28H149.941C153.245 0.28 155.457 1.68 155.457 4.312C155.457 6.944 153.245 8.372 149.941 8.372H139.413C136.081 8.372 134.149 6.944 134.149 4.312C134.149 1.68 136.081 0.28 139.413 0.28ZM155.457 21.56V24.332H134.401V17.5H151.481V16.268H134.401V13.496H155.205V20.272H138.125V21.56H155.457ZM133.225 9.436H156.381V12.236H133.225V9.436ZM26.4691 34.672H39.9091V38.06H34.6171C34.5611 40.16 34.4211 42.176 34.1131 44.108C35.5691 48.252 38.0891 52.312 41.3091 55.196L38.4531 57.548C36.2131 55.364 34.2811 52.536 32.8251 49.652C31.8731 52.592 30.5011 55.308 28.7091 57.744L25.4051 55.952C29.2411 50.716 30.8091 45.256 30.9211 38.06H26.4691V34.672ZM47.3851 34.28V58.472H43.6891V34.28H47.3851ZM61.564 34.672V57.408H51.68V34.672H55.152V42.484H58.064V34.672H61.564ZM55.152 54.076H58.064V45.844H55.152V54.076ZM72.596 34.28V58.472H69.068V46.908H66.968V58.192H63.468V34.392H66.968V43.52H69.068V34.28H72.596ZM89.659 44.836C89.659 47.972 87.027 50.212 83.331 50.212C79.663 50.212 77.031 47.972 77.031 44.836C77.031 41.672 79.663 39.432 83.331 39.432C87.027 39.432 89.659 41.672 89.659 44.836ZM97.807 54.944V58.332H77.423V51.108H81.119V54.944H97.807ZM100.439 41.168V44.696H97.303V52.452H93.579V34.28H97.303V41.168H100.439ZM90.723 35.54V38.564H76.107V35.54H81.427V33.356H85.151V35.54H90.723ZM86.103 44.836C86.103 43.436 85.067 42.288 83.331 42.288C81.567 42.288 80.587 43.436 80.587 44.836C80.587 46.208 81.567 47.3 83.331 47.3C85.067 47.3 86.103 46.208 86.103 44.836ZM116.578 57.408H102.102V34.672H115.206V38.06H105.826V54.048H116.578V57.408ZM122.514 46.936V58.472H118.79V34.28H122.514V43.38H125.65V46.936H122.514ZM127.061 33.888H130.757V50.856H127.061V33.888ZM131.037 58.052H126.781V53.88H131.037V58.052Z" fill="#303030"/>
</svg>
